<?xml version="1.0" encoding="UTF-8"?>
<svg id="Layer_1" xmlns="http://www.w3.org/2000/svg" viewBox="0 0 70.19 46.03">
  <path d="M42.53,21.86h-14.86c-1.93,0-3.5-1.57-3.5-3.5V3.5c0-1.93,1.57-3.5,3.5-3.5h14.86c1.93,0,3.5,1.57,3.5,3.5v14.86c0,1.93-1.57,3.5-3.5,3.5ZM27.67,1c-1.38,0-2.5,1.12-2.5,2.5v14.86c0,1.38,1.12,2.5,2.5,2.5h14.86c1.38,0,2.5-1.12,2.5-2.5V3.5c0-1.38-1.12-2.5-2.5-2.5h-14.86Z"/>
  <path d="M33.95,12.4c-.55,0-.81-.41-.58-.91l1.3-2.78c.23-.5.61-.5.85,0l1.3,2.79c.23.5-.03.91-.58.91h-2.29Z"/>
  <path d="M42.53,46.03h-14.86c-1.93,0-3.5-1.57-3.5-3.5v-14.86c0-1.93,1.57-3.5,3.5-3.5h14.86c1.93,0,3.5,1.57,3.5,3.5v14.86c0,1.93-1.57,3.5-3.5,3.5ZM27.67,25.17c-1.38,0-2.5,1.12-2.5,2.5v14.86c0,1.38,1.12,2.5,2.5,2.5h14.86c1.38,0,2.5-1.12,2.5-2.5v-14.86c0-1.38-1.12-2.5-2.5-2.5h-14.86Z"/>
  <path d="M36.25,33.63c.55,0,.81.41.58.91l-1.3,2.78c-.23.5-.61.5-.85,0l-1.3-2.78c-.23-.5.03-.91.58-.91h2.29Z"/>
  <path d="M18.36,45.72H3.5c-1.93,0-3.5-1.57-3.5-3.5v-14.86c0-1.93,1.57-3.5,3.5-3.5h14.86c1.93,0,3.5,1.57,3.5,3.5v14.86c0,1.93-1.57,3.5-3.5,3.5ZM3.5,24.85c-1.38,0-2.5,1.12-2.5,2.5v14.86c0,1.38,1.12,2.5,2.5,2.5h14.86c1.38,0,2.5-1.12,2.5-2.5v-14.86c0-1.38-1.12-2.5-2.5-2.5H3.5Z"/>
  <path d="M12.58,35.93c0,.55-.41.81-.91.58l-2.78-1.3c-.5-.23-.5-.61,0-.85l2.78-1.3c.5-.23.91.03.91.58v2.3Z"/>
  <path d="M66.69,45.72h-14.86c-1.93,0-3.5-1.57-3.5-3.5v-14.86c0-1.93,1.57-3.5,3.5-3.5h14.86c1.93,0,3.5,1.57,3.5,3.5v14.86c0,1.93-1.57,3.5-3.5,3.5ZM51.83,24.85c-1.38,0-2.5,1.12-2.5,2.5v14.86c0,1.38,1.12,2.5,2.5,2.5h14.86c1.38,0,2.5-1.12,2.5-2.5v-14.86c0-1.38-1.12-2.5-2.5-2.5h-14.86Z"/>
  <path d="M57.62,33.64c0-.55.41-.81.91-.58l2.79,1.3c.5.23.5.61,0,.85l-2.79,1.3c-.5.23-.91-.03-.91-.58v-2.3Z"/>
</svg>